<svg width="128" height="128" viewBox="0 0 128 128" fill="none" xmlns="http://www.w3.org/2000/svg">
<rect width="128" height="128" rx="12" fill="white"/>
<path d="M37.4135 96.8855C37.5786 96.8855 37.6687 96.6981 37.5657 96.5702C30.888 88.2657 27.171 76.8624 27.171 64.2965C27.171 51.7293 30.8892 40.3259 37.5657 32.0214C37.6687 31.893 37.5798 31.7056 37.4159 31.7056H23.0911C17.6028 41.265 14.6479 52.5248 14.6479 64.2965C14.6479 76.0675 17.6028 87.3267 23.0911 96.8855H37.4135Z" fill="black"/>
<path d="M91.2332 96.8855C91.0693 96.8855 90.9792 96.6981 91.0822 96.5702C97.7599 88.2657 101.477 76.8624 101.477 64.2965C101.477 51.7293 97.7588 40.3259 91.081 32.0214C90.978 31.893 91.0682 31.7056 91.2321 31.7056H105.556C111.044 41.265 114 52.5248 114 64.2965C114 76.0675 111.045 87.3267 105.557 96.8855H91.2332Z" fill="black"/>
</svg>
